<svg version="1.1" id="Layer_1" xmlns="http://www.w3.org/2000/svg" xmlns:xlink="http://www.w3.org/1999/xlink" x="0px" y="0px"
	 width="100%" viewBox="0 0 1024 512" enable-background="new 0 0 1024 512" xml:space="preserve">
<path fill="#DD153C" opacity="1.000000" stroke="none" 
	d="
M495.366150,457.557678 
	C467.346741,466.528839 439.112335,471.417328 409.988251,470.242981 
	C394.666351,469.625183 379.565155,467.173798 364.445648,464.806274 
	C332.783112,459.848328 309.760437,441.369873 289.677765,417.882965 
	C274.867554,400.562225 262.034363,381.982452 257.387115,359.452026 
	C250.058701,323.922974 249.934021,288.708984 266.759521,255.120224 
	C270.933502,246.787689 274.142059,238.014603 275.110321,228.575485 
	C275.924438,220.638931 272.229889,213.203064 265.047729,209.409561 
	C260.336243,206.921021 255.379547,204.890884 250.703445,202.342133 
	C218.383713,184.725723 183.894669,171.637772 151.273575,154.616776 
	C141.966949,149.760757 134.189835,142.835434 125.025299,137.900314 
	C113.609222,131.752716 103.346161,123.880913 93.173218,115.864098 
	C86.653824,110.726471 79.731880,106.071426 72.778793,101.523544 
	C68.960159,99.025833 65.755157,96.014969 62.584175,92.796753 
	C59.941288,90.114487 59.099865,87.348724 60.112068,83.364471 
	C66.118401,82.939911 71.360130,85.445381 76.648598,87.679161 
	C88.776093,92.801659 99.920227,99.789787 111.520844,105.881409 
	C119.795692,110.226631 128.886353,113.249847 137.280533,117.676888 
	C145.730270,122.133232 154.126846,126.606064 161.677399,132.529709 
	C164.575302,134.803207 167.963455,136.265472 171.330673,137.737289 
	C192.543808,147.009537 213.947495,155.891846 233.846313,167.885956 
	C236.840759,169.690872 239.744324,171.646545 242.689560,173.533066 
	C244.880356,174.936356 246.842987,176.908142 249.899536,175.813538 
	C250.531555,175.587189 251.685593,175.947495 252.218399,176.445038 
	C260.873566,184.527359 272.928802,184.931244 282.892853,190.083847 
	C291.625397,194.599625 300.471283,194.032578 309.034058,189.197906 
	C309.612762,188.871170 310.513306,188.775711 310.787140,188.298782 
	C314.613892,181.633896 321.623352,179.613998 327.676392,175.961212 
	C333.212250,172.620560 338.891083,170.327087 345.000244,168.777237 
	C346.476196,168.402817 347.846222,167.970108 349.161713,167.222000 
	C358.471405,161.927673 368.391876,159.063660 379.051636,157.250092 
	C388.667816,155.614059 398.134430,153.041351 407.954132,152.394562 
	C410.796448,152.207352 413.618103,151.953964 416.414764,152.521286 
	C426.539703,154.575150 436.717072,155.897797 447.090973,155.817902 
	C450.571564,155.791092 453.974701,157.280930 457.007812,158.998398 
	C460.942017,161.226105 465.045868,162.206543 469.467346,161.771591 
	C477.083527,161.022369 483.612915,164.099060 490.451477,166.825745 
	C497.441437,169.612778 505.033264,170.775406 512.382385,172.539185 
	C530.793152,176.957718 548.916626,182.644608 567.008545,188.292923 
	C577.504944,191.569931 588.027954,194.649673 598.730347,197.148819 
	C603.262573,198.207169 607.903198,199.056900 611.575134,202.289825 
	C612.503418,203.107132 613.492920,203.459915 614.780212,203.152252 
	C625.517456,200.585953 635.540405,203.640778 645.437073,207.256195 
	C659.580017,212.422836 674.151428,215.746170 689.045288,217.745758 
	C693.673401,218.367111 697.060974,221.660141 701.255798,223.256775 
	C706.283203,225.170242 709.404968,224.126892 711.432068,219.116821 
	C718.217102,202.347748 728.495239,187.936798 740.888306,174.882111 
	C745.266479,170.270248 747.819824,164.337616 751.220154,159.018478 
	C755.255676,152.705551 759.513916,146.487930 762.949585,139.853043 
	C765.885986,134.182327 768.082275,128.072540 770.048218,121.977074 
	C771.140076,118.591690 772.066345,115.275490 774.608459,112.710686 
	C780.408386,106.859131 784.947510,100.240417 788.086914,92.559166 
	C790.519714,86.606461 795.494324,82.819351 800.888611,79.642990 
	C804.333191,77.614746 807.798035,75.607811 811.350098,73.778160 
	C817.868896,70.420319 822.576538,65.413338 825.077637,58.554096 
	C827.165100,52.829407 831.271179,50.536102 837.030029,50.765911 
	C842.070129,50.967037 846.786316,50.207024 851.676270,48.616917 
	C857.569580,46.700508 863.521118,48.927483 868.700500,51.963123 
	C870.329712,52.917999 871.691956,53.732788 873.537598,53.825802 
	C886.116882,54.459717 896.808044,59.391029 905.409973,68.494316 
	C923.298523,87.425636 940.512512,106.902214 950.996887,131.207230 
	C958.485535,148.567474 964.013611,166.689285 966.165588,185.361649 
	C967.143433,193.846191 969.632080,203.037369 965.742371,211.851639 
	C964.992126,213.551620 966.081055,216.055115 966.296387,218.190491 
	C968.497314,240.016968 964.130920,260.023041 950.225464,277.538025 
	C948.913330,279.190857 948.867554,281.896423 948.376831,284.144470 
	C947.273438,289.199646 944.591919,293.221588 941.011047,296.921783 
	C930.012817,308.286804 918.489685,318.981628 904.804993,327.106415 
	C900.972351,335.512268 891.451172,335.765167 885.172302,340.704376 
	C882.951965,342.450989 879.676147,342.410309 876.931885,343.248138 
	C873.245056,344.373840 870.561279,346.389832 867.757324,348.760803 
	C860.077209,355.254913 850.560242,357.144287 841.025696,358.967957 
	C810.331116,364.839020 779.349976,367.519989 748.125122,366.927643 
	C731.642517,366.614960 715.166931,365.715149 698.702515,364.818451 
	C694.756348,364.603546 690.836304,363.471100 686.960144,362.530487 
	C682.919128,361.549835 678.903625,360.476929 674.708008,360.788696 
	C672.777405,360.932159 670.858643,360.670929 669.493591,359.497345 
	C665.598389,356.148682 661.184326,357.022827 656.783691,357.505066 
	C654.105103,357.798615 651.495850,358.116302 650.698120,361.514709 
	C650.402405,362.774536 649.126038,363.968506 647.823364,364.085419 
	C639.008606,364.876740 634.249634,373.446838 626.013794,375.322205 
	C624.231140,375.728149 623.639893,377.523254 622.824402,378.971344 
	C619.749756,384.430542 615.785034,389.272827 610.552185,392.606445 
	C598.749817,400.125153 588.222046,409.650940 575.688354,415.914368 
	C552.508972,427.497772 531.940857,443.885681 507.348907,452.826752 
	C503.438354,454.248535 499.604492,455.881256 495.366150,457.557678 
M885.927612,96.575760 
	C881.107422,91.298843 876.674683,85.640343 870.673218,81.541557 
	C869.624878,80.825600 868.766052,79.666916 868.131287,78.537575 
	C864.156311,71.466080 861.174744,70.000519 853.325012,71.659218 
	C848.774353,72.620811 844.264038,74.370163 839.620178,73.993156 
	C836.741516,73.759460 835.562622,74.836670 834.010376,76.828117 
	C829.807556,82.220284 827.712463,89.381020 820.878479,92.634056 
	C820.130554,92.990067 819.741760,94.220139 819.312439,95.105942 
	C816.772217,100.347824 814.593994,105.794563 811.697998,110.829582 
	C798.332764,134.066513 785.189941,157.424515 772.158691,180.850998 
	C765.938660,192.032928 758.715088,202.698059 751.353455,213.181122 
	C748.782532,216.842209 749.723755,219.724854 750.906006,222.901932 
	C752.080811,226.058823 754.323059,227.844696 758.120422,227.887070 
	C764.783264,227.961426 771.377808,228.892853 777.884827,230.513382 
	C795.343323,234.861282 813.042358,238.025848 830.702087,241.428802 
	C839.102661,243.047562 846.521057,247.693787 849.772278,256.684540 
	C851.456604,261.342285 851.987610,265.578033 847.648926,269.363770 
	C843.533142,272.954865 839.501831,275.340210 833.697327,273.408936 
	C822.121887,269.557617 810.079163,267.782867 798.023865,266.209717 
	C782.361511,264.165863 766.722839,262.041290 751.612976,257.162842 
	C745.932251,255.328751 740.713135,252.139374 734.636902,251.459625 
	C731.572632,251.116852 727.687256,250.684494 726.462830,253.567978 
	C724.552246,258.067352 720.902771,260.821899 718.191467,264.466125 
	C713.390381,270.919098 710.023743,278.453613 703.448242,283.560638 
	C702.569275,284.243286 701.768799,285.289459 701.404297,286.332397 
	C696.439026,300.539551 684.368042,309.851440 676.595825,322.143311 
	C674.931946,324.774689 673.248779,326.691986 674.084106,330.158020 
	C683.248840,332.629364 692.217285,335.823120 701.795532,337.483887 
	C710.099182,338.923645 717.973755,340.094299 726.295044,338.063263 
	C735.845642,335.732269 745.164368,336.256989 753.369385,342.594818 
	C754.984131,343.842072 756.761169,343.855957 758.598022,343.513916 
	C763.221985,342.652985 767.897766,342.909088 772.554321,342.846436 
	C776.339905,342.795532 780.417236,343.884430 783.862732,342.828552 
	C795.713379,339.196716 808.154358,339.044128 820.086487,335.913574 
	C833.689880,332.344513 847.653259,330.109406 860.374634,323.623169 
	C866.006714,320.751556 871.793213,318.179382 877.538696,315.534454 
	C881.678040,313.628845 886.357300,312.581909 887.942261,307.273254 
	C888.291931,306.102203 890.002747,304.934143 891.321228,304.530334 
	C895.516602,303.245453 898.339111,300.380341 901.134155,297.248779 
	C902.660034,295.539185 904.565369,293.996246 906.592896,292.942657 
	C910.614441,290.852875 914.383118,288.854279 915.497192,283.820557 
	C915.807190,282.420044 917.425964,281.080566 918.757568,280.172241 
	C926.715881,274.743500 928.144043,265.237793 932.497070,257.647247 
	C935.018982,253.249695 935.556091,247.451462 938.108154,242.800690 
	C940.281799,238.839661 939.884827,234.528625 938.917664,231.071686 
	C937.539551,226.145905 938.023865,221.959961 939.739014,217.531036 
	C941.306641,213.483002 943.490173,208.969879 942.289307,205.020370 
	C938.560913,192.758224 937.095947,179.994995 933.370300,167.782516 
	C932.321106,164.343124 929.480225,161.417099 928.601440,157.965286 
	C926.106262,148.164490 918.932373,141.152603 914.231506,132.689011 
	C906.856445,119.410744 894.921204,109.568329 885.927612,96.575760 
M453.319916,295.294128 
	C449.266968,293.772003 445.177887,292.338989 441.166931,290.713287 
	C414.171173,279.771667 386.506531,270.419952 360.458923,257.222168 
	C345.752319,249.770645 331.182495,242.040176 316.701477,234.158981 
	C313.215576,232.261795 311.528168,232.714508 309.724701,236.132767 
	C306.499786,242.245193 301.992401,247.361862 296.366455,251.441727 
	C295.560760,252.025986 294.639862,252.549774 294.499847,253.659363 
	C293.756531,259.550232 289.000458,263.770172 288.040894,269.642609 
	C286.385284,279.775055 283.111115,289.817078 282.841736,299.958801 
	C282.490143,313.197876 283.934723,326.551514 285.470703,339.755371 
	C287.062500,353.439453 291.094788,366.411621 299.735168,377.631622 
	C305.830505,385.546783 311.564667,393.746063 317.285248,401.940582 
	C319.238831,404.738983 321.446960,406.911682 324.471558,408.606537 
	C327.599426,410.359314 331.361145,411.619171 333.150818,415.083496 
	C335.761658,420.137421 339.574432,423.449738 345.178833,424.719940 
	C347.519409,425.250488 349.190704,427.016968 351.045563,428.423798 
	C355.702850,431.956177 360.385162,436.051544 366.344269,436.432220 
	C378.954742,437.237915 391.782196,438.714233 404.215454,437.276459 
	C422.952484,435.109772 441.938080,436.232452 460.568024,431.072510 
	C470.980347,428.188599 481.816742,425.992432 492.172791,422.791779 
	C500.460297,420.230438 507.821045,414.800293 515.828186,411.160614 
	C522.158203,408.283234 527.143860,402.660278 534.446472,401.914917 
	C537.369141,401.616577 539.266663,400.139404 541.135559,398.095490 
	C545.537354,393.281189 550.253845,388.934784 556.725769,386.821350 
	C560.108948,385.716553 564.743469,384.611298 566.164917,382.041534 
	C570.651733,373.930420 577.369385,368.068970 583.757202,361.805298 
	C587.985901,357.658752 591.506958,353.154633 593.113403,347.301544 
	C593.847595,344.626465 593.574280,342.991852 590.668457,341.864746 
	C583.281433,338.999481 576.294617,335.015167 567.805664,336.222656 
	C564.570435,336.682831 561.089661,335.711121 558.143677,334.198975 
	C547.590759,328.782135 535.665894,327.303070 524.897888,322.186707 
	C520.340027,320.021088 514.395203,319.729767 509.544403,317.201080 
	C503.444977,314.021454 496.431366,313.276764 490.444489,309.972534 
	C485.098022,307.021759 479.947418,303.824188 473.983032,302.095398 
	C467.272369,300.150299 460.692444,297.754303 453.319916,295.294128 
M355.486389,193.692261 
	C353.298767,194.423492 351.554962,195.943832 349.166779,196.499435 
	C340.018188,198.627777 336.427002,203.000671 335.369202,212.345062 
	C343.943909,217.013748 351.970856,222.319397 361.375183,225.609711 
	C390.351227,235.747528 418.060974,248.707626 443.195221,266.644775 
	C446.113556,268.727478 449.092255,270.182709 452.915802,269.526978 
	C459.860779,268.335968 466.124786,270.412994 471.596771,274.575775 
	C473.492401,276.017914 475.106812,276.593658 477.453796,276.341736 
	C485.355255,275.493439 492.728058,276.860596 498.937256,282.291595 
	C499.817322,283.061371 500.767731,283.786285 502.029449,283.735931 
	C507.521240,283.516754 510.489960,286.741669 512.468262,291.549011 
	C517.938171,290.122711 523.019104,291.515747 526.662842,295.405823 
	C529.226990,298.143280 531.994385,299.696381 535.337341,300.812958 
	C544.131653,303.750336 553.655396,304.020782 562.122192,308.220123 
	C563.367615,308.837830 565.066223,308.611267 566.558350,308.650208 
	C573.701721,308.836548 580.443481,310.208221 586.155823,314.904602 
	C587.451172,315.969635 588.967651,316.607208 590.709900,316.757019 
	C596.920898,317.291016 602.474976,320.023163 608.317322,321.846863 
	C619.596558,325.367676 633.012329,325.890564 642.192078,315.107239 
	C647.371033,309.023621 651.775269,302.372498 657.102173,296.420074 
	C660.704895,292.394287 665.261475,289.364044 668.046631,284.426575 
	C672.695190,276.185516 680.196716,270.050812 685.056458,261.707214 
	C687.221802,257.989349 690.668884,253.292145 695.830200,251.531631 
	C697.609924,250.924591 699.272034,249.468536 698.954712,247.463486 
	C698.539917,244.842667 696.026306,245.331314 694.100403,245.065475 
	C682.649170,243.484756 671.422791,240.399384 659.754395,240.171600 
	C657.563599,240.128860 655.355835,238.745682 653.234680,237.803619 
	C648.535583,235.716614 643.457092,235.035431 638.580078,233.630524 
	C627.322510,230.387604 615.533020,230.769730 604.158936,228.051193 
	C595.868469,226.069641 588.663269,221.637100 580.352966,219.653000 
	C565.025391,215.993515 549.457092,213.408264 534.262146,209.235535 
	C526.445251,207.088867 518.792480,204.350494 511.034973,201.979416 
	C505.532532,200.297577 500.041016,197.811874 494.431580,197.453369 
	C488.210846,197.055817 482.727600,195.426651 477.360504,192.659698 
	C475.900757,191.907150 474.456573,190.937363 472.669312,191.840225 
	C470.253174,193.060760 467.849457,192.034042 465.400055,191.937088 
	C459.055603,191.685974 453.223907,189.110565 447.076569,188.381104 
	C436.348297,187.108109 425.553986,186.240723 414.762512,185.696045 
	C404.817078,185.194046 394.920563,185.104507 385.036743,187.712738 
	C375.612030,190.199829 366.313568,193.777161 355.486389,193.692261 
z"/>
</svg>